<?xml version="1.0" encoding="utf-8"?>
<!-- Generator: Adobe Illustrator 23.0.1, SVG Export Plug-In . SVG Version: 6.00 Build 0)  -->
<svg version="1.1" id="Layer_1" xmlns="http://www.w3.org/2000/svg" xmlns:xlink="http://www.w3.org/1999/xlink" x="0px" y="0px"
	 viewBox="0 0 1920 1080" enable-background="new 0 0 1920 1080" xml:space="preserve">
<g>
	<defs>
		<rect id="XMLID_1_" x="300" y="0" width="1620" height="1080"/>
	</defs>
	<clipPath id="XMLID_4_">
		<use xlink:href="#XMLID_1_"  overflow="visible"/>
	</clipPath>
	<rect id="XMLID_2_" x="300" y="0" clip-path="url(#XMLID_4_)" fill="#FFFFFF" width="1620" height="1080"/>
	<path opacity="0.18" clip-path="url(#XMLID_4_)" fill="#98DDFD" d="M788.6,1116.4c-46.8-172.4-53.7-334.6,69.6-442.7
		s165.6-264.5,177.3-358c11.7-93.5,255.9-100.8,358-225c102.1-124.2,102.3-135.2,102.3-135.2l152,6.6l85.2,445.5L1132,1169
		L788.6,1116.4z"/>
	<path clip-path="url(#XMLID_4_)" fill="#60CDEB" d="M1166.7,1141.2l899.2-48.3c92.8,0,173.2-84.7,185.8-200.2
		c0.3-2.7,0.6-5.4,0.8-8.2c4.1-50.2-4-99.8-36.5-138c-103.8-122.3,41.1-279.8,19.5-388.5c-21.6-108.7-42.7-106.2-183.2-277.3
		c-140.5-171.2-247.1-243.1-458.2-39.9c-186.1,179.3-361.8,19.7-531.9,168.8c-103.7,90.8,25.4,219-117.3,452.7
		c-90,147.4-81.2,339.4-19.2,417.7c20.4,25.8,111.2,61.8,137.9,74.2C1083.9,1163.6,1145.3,1141.2,1166.7,1141.2z"/>
	<g opacity="0.18" clip-path="url(#XMLID_4_)">
		<path fill="#009EE1" d="M1056,1133.9c-154.9-185.6-81.5-310.9,0.2-450.6c81.7-139.7,84.6-237.6,70-326.8
			c-14.6-89.1,30.9-140.5,175.6-136.6c132.7,3.6,406-87,482-220c-44.6-44.6-0.2-69.5,44.7-82.4c-65.3-4-139.1,31.7-234.1,123.2
			c-186.1,179.3-361.8,19.7-531.9,168.8c-103.7,90.8,25.4,219-117.3,452.7c-90,147.4-81.2,339.4-19.2,417.7
			c20.4,25.8,111.2,61.8,137.9,74.2c20.1,9.4,81.5-13,103-13l61.1-3.3L1056,1133.9z"/>
		<path fill="#009EE1" d="M2216.1,746.5c-103.8-122.3,41.1-279.8,19.5-388.5c-21.6-108.7-42.7-106.2-183.2-277.3
			c-8.1-9.9-16.1-19.4-24-28.6l43.1,273.8l2.9,716l-98.5,55.9l90-4.8c92.8,0,173.2-84.7,185.8-200.2c0.3-2.7,0.6-5.4,0.8-8.2
			C2256.7,834.3,2248.5,784.7,2216.1,746.5z"/>
	</g>
	<path clip-path="url(#XMLID_4_)" fill="#E0F4FF" d="M1982.6,975.5c0-13.3-221.6-24-494.8-24s-494.8,10.8-494.8,24
		c0,13.3,221.6,24,494.8,24S1982.6,988.8,1982.6,975.5z"/>
	<g clip-path="url(#XMLID_4_)">
		<g>
			<polygon fill="#009EE1" points="1104.2,209.9 978.7,195.1 1032.9,279.8 1060.8,253.1 1074.7,272.6 1075,235 			"/>
			<polygon fill="#005CAE" points="1071.4,233.5 1075,235 1074.7,272.6 1060.8,253.1 978.7,195.1 			"/>
		</g>
		<polygon fill="#006DC2" points="1048.3,265 1074.7,272.6 1060.8,253.1 		"/>
	</g>
	<g clip-path="url(#XMLID_4_)">
		<path fill="#FFFFFF" d="M1081.4,272.7c-1.1-1.1-2.1-2.3-3.1-3.5l0.9-0.7c0.9,1.2,2,2.3,3,3.4L1081.4,272.7z"/>
		<path fill="#FFFFFF" d="M1285.3,419.9c-2.2-2.1-4.4-4.2-6.5-6.4l0.8-0.8c2.1,2.2,4.3,4.3,6.5,6.4L1285.3,419.9z M1272.5,406.8
			c-2-2.3-4-4.6-5.9-7l0.9-0.7c1.9,2.4,3.9,4.7,5.8,7L1272.5,406.8z M1261.1,392.6c-1.8-2.5-3.5-5-5.2-7.5l1-0.6
			c1.6,2.5,3.3,5,5.1,7.5L1261.1,392.6z M1251.2,377.2c-0.4-0.6-0.7-1.3-1.1-1.9c-1.2-2.1-2.3-4.1-3.3-6.1l1-0.5c1,2,2.1,4,3.3,6.1
			c0.4,0.6,0.7,1.3,1.1,1.9L1251.2,377.2z M1243,360.9c-1.2-2.9-2.4-5.7-3.3-8.5l1.1-0.4c1,2.8,2.1,5.6,3.3,8.4L1243,360.9z
			 M1237,343.6c-0.8-3-1.4-6-1.8-9l1.1-0.2c0.4,2.9,1.1,5.9,1.8,8.9L1237,343.6z M1244.1,327.2l0-1.2c3.3,0,6.3-0.3,8.9-0.9l0.2,1.1
			C1250.5,326.9,1247.5,327.2,1244.1,327.2z M1235,326.6c-3.1-0.4-6.2-1-9-1.7l0.3-1.1c2.5,0.7,5.2,1.2,8,1.6c0-1.3,0-2.6,0-3.8
			c0.1-1.8,0.2-3.5,0.4-5.2l1.1,0.2c-0.2,1.6-0.4,3.3-0.4,5.1c0,1.3,0,2.6,0,3.9l-0.3,0L1235,326.6z M1217.3,321.8
			c-2.9-1.3-5.6-2.8-8-4.5l0.7-0.9c2.4,1.7,5,3.2,7.8,4.4L1217.3,321.8z M1261.9,322.8l-0.6-1c0.2-0.1,0.5-0.3,0.7-0.4
			c2.2-1.5,4-3.5,5.4-5.8l1,0.6c-1.5,2.5-3.5,4.6-5.8,6.2C1262.4,322.5,1262.1,322.7,1261.9,322.8z M1202.3,311.2
			c-2-2.2-3.9-4.6-5.6-7.3l1-0.6c1.7,2.6,3.5,5,5.5,7.1L1202.3,311.2z M1238.1,307.9l-1.1-0.4c1.3-3,3-5.6,5-7.8l0.8,0.8
			C1240.9,302.5,1239.3,305,1238.1,307.9z M1269.8,307.2c0-1.9-0.4-3.8-1.3-5.4c-0.5-0.9-1.1-1.8-1.7-2.5l0.8-0.8
			c0.8,0.8,1.4,1.8,1.9,2.8c0.9,1.8,1.4,3.8,1.4,5.9L1269.8,307.2z M1139.9,295.1l0-1.1c2.9,0.1,5.9,0.1,9.1,0l0,1.1
			C1145.9,295.1,1142.8,295.2,1139.9,295.1z M1130.8,294.5c-3.1-0.3-6.2-0.7-9.1-1.3l0.2-1.1c2.9,0.5,5.9,1,9,1.3L1130.8,294.5z
			 M1192.3,295.9c-1.2-2.6-2.3-5.4-3.4-8.5l1.1-0.4c1.1,3.1,2.2,5.8,3.4,8.4L1192.3,295.9z M1158.2,294.6l-0.1-1.1
			c2.3-0.2,4.7-0.4,7.2-0.6l1.8-0.2l0.1,1.1l-1.8,0.2C1162.9,294.2,1160.5,294.4,1158.2,294.6z M1250.4,295.9l-0.3-1.1
			c3-0.9,6.3-1.2,9.3-0.6l-0.2,1.1C1256.3,294.8,1253.2,295.1,1250.4,295.9z M1112.8,291.1c-3-0.9-5.9-1.9-8.6-3.1l0.4-1.1
			c2.7,1.1,5.6,2.2,8.5,3L1112.8,291.1z M1176.3,292.5l-0.2-1.1c3.2-0.5,6.1-1.2,8.9-1.9l0.3,1.1
			C1182.5,291.3,1179.6,292,1176.3,292.5z M1194,287.6l-0.4-1.1c2.9-1.2,5.5-2.6,7.9-4.2l0.6,1
			C1199.7,284.9,1196.9,286.4,1194,287.6z M1095.9,283.9c-2.7-1.5-5.3-3.3-7.7-5.1l0.7-0.9c2.3,1.8,4.9,3.5,7.5,5L1095.9,283.9z
			 M1186.1,278.7c-0.9-3.3-1.6-6.2-2-9l1.1-0.2c0.4,2.7,1,5.6,1.9,8.8L1186.1,278.7z M1209.2,277.3l-0.8-0.8c2-2.2,3.8-4.7,5.2-7.3
			l1,0.5C1213.1,272.5,1211.3,275.1,1209.2,277.3z M1184.9,260.6l-1.1-0.1c0.1-1.4,0.3-2.7,0.5-4.1c0.3-1.7,0.8-3.4,1.5-5l1.1,0.4
			c-0.6,1.6-1.1,3.2-1.4,4.8C1185.2,257.9,1185,259.2,1184.9,260.6z M1217.7,261.1l-1.1-0.2c0.3-1.6,0.5-3.1,0.6-4.7
			c0-1.4,0-2.8-0.2-4.2l1.1-0.2c0.2,1.4,0.3,2.9,0.2,4.4C1218.3,257.9,1218.1,259.5,1217.7,261.1z M1191.5,244.4l-0.8-0.8
			c2.2-2.4,4.8-4.2,7.6-5.3l0.4,1.1C1196,240.4,1193.6,242.1,1191.5,244.4z M1214,243.8c-1.2-1.9-2.6-3.3-4.2-4.2
			c-0.8-0.4-1.6-0.8-2.5-1l0.3-1.1c1,0.3,1.9,0.6,2.8,1.1c1.8,1,3.3,2.5,4.6,4.5L1214,243.8z"/>
	</g>
	<g clip-path="url(#XMLID_4_)">
		<g>
			<path fill="#006DC2" d="M1659.4,459.2c-24.5-25.6-65.2-26.5-90.8-2c-25.6,24.5-26.5,65.2-2,90.8c24.5,25.6,65.2,26.5,90.8,2
				C1683,525.5,1683.9,484.8,1659.4,459.2z M1579.7,535.5c-17.6-18.4-17-47.6,1.4-65.2c18.4-17.6,47.6-17,65.2,1.4
				c17.6,18.4,17,47.6-1.4,65.2C1626.5,554.5,1597.3,553.9,1579.7,535.5z"/>
			<path fill="#CAECFF" d="M1645.8,471.1c-17.9-18.1-47.1-18.3-65.2-0.3c-18.1,17.9-18.3,47.1-0.3,65.2
				c17.9,18.1,47.1,18.3,65.2,0.3C1663.6,518.4,1663.7,489.2,1645.8,471.1z"/>
			<path fill="#FFFFFF" d="M1648.6,474.2l-80,41.9c-2.3-8-2.4-16.7,0-25.3l59.1-31C1636.2,462.7,1643.3,467.8,1648.6,474.2z"/>
			<path fill="#FFFFFF" d="M1657.3,516.6c-0.1,0.5-0.3,0.9-0.4,1.4l-57,29.8c-11.5-3.4-20.7-11-26.4-20.5l81.6-42.8
				C1659.4,494.2,1660.5,505.5,1657.3,516.6z"/>
		</g>
		
			<rect x="1513" y="522.6" transform="matrix(0.6913 0.7226 -0.7226 0.6913 898.9908 -918.6288)" fill="#006DC2" width="23.2" height="140.4"/>
	</g>
	<g clip-path="url(#XMLID_4_)">
		<g>
			<g>
				<path fill="#4D99E0" d="M1770.3,440l6.8-10.1c1.5-2.2,0.9-5.2-1.3-6.6l-5.1-3.4c-2.4-1.6-3.4-4.6-2.7-7.4
					c0.6-2.2,1.1-4.5,1.4-6.8c0.4-2.9,2.5-5.2,5.3-5.8l6.1-1.2c2.6-0.5,4.3-3,3.8-5.6l-2.3-11.9c-0.5-2.6-3-4.3-5.6-3.8l-6.1,1.2
					c-2.9,0.6-5.7-0.8-7.1-3.4c-1.1-2-2.4-3.9-3.8-5.7c-1.8-2.3-1.9-5.5-0.3-7.9l3.4-5.1c1.5-2.2,0.9-5.2-1.3-6.6l-10.1-6.8
					c-2.2-1.5-5.2-0.9-6.6,1.3l-3.4,5.1c-1.6,2.4-4.6,3.4-7.4,2.7c-2.2-0.6-4.5-1.1-6.8-1.4c-2.9-0.4-5.2-2.5-5.8-5.3l-1.2-6.1
					c-0.5-2.6-3-4.3-5.6-3.8l-11.9,2.3c-2.6,0.5-4.3,3-3.8,5.6l1.2,6.1c0.6,2.9-0.8,5.7-3.4,7.1c-2,1.1-3.9,2.4-5.8,3.8
					c-2.3,1.8-5.5,1.9-7.9,0.3l-5.1-3.4c-2.2-1.5-5.2-0.9-6.6,1.3l-6.8,10.1c-1.5,2.2-0.9,5.2,1.3,6.6l5.1,3.4
					c2.4,1.6,3.4,4.6,2.7,7.4c-0.6,2.2-1.1,4.5-1.4,6.8c-0.4,2.9-2.5,5.2-5.3,5.8l-6.1,1.2c-2.6,0.5-4.3,3-3.8,5.6l2.3,11.9
					c0.5,2.6,3,4.3,5.6,3.8l6.1-1.2c2.9-0.6,5.7,0.8,7.1,3.4c1.1,2,2.4,3.9,3.8,5.8c1.8,2.3,1.9,5.5,0.3,7.9l-3.4,5.1
					c-1.5,2.2-0.9,5.2,1.3,6.6l10.1,6.8c2.2,1.5,5.2,0.9,6.6-1.3l3.4-5.1c1.6-2.4,4.6-3.4,7.4-2.7c2.2,0.6,4.5,1.1,6.8,1.4
					c2.9,0.4,5.2,2.5,5.8,5.3l1.2,6.1c0.5,2.6,3,4.3,5.6,3.8l11.9-2.3c2.6-0.5,4.3-3,3.8-5.6l-1.2-6.1c-0.6-2.9,0.8-5.7,3.4-7.1
					c2-1.1,3.9-2.4,5.7-3.8c2.3-1.8,5.5-1.9,7.9-0.3l5.1,3.4C1765.9,442.7,1768.8,442.2,1770.3,440z M1712.6,411.6
					c-6.7-4.5-8.5-13.6-4-20.3c4.5-6.7,13.6-8.5,20.3-4c6.7,4.5,8.5,13.6,4,20.3C1728.4,414.3,1719.3,416.1,1712.6,411.6z"/>
			</g>
			<g>
				<path fill="#98DDFD" d="M1777.7,535.7l3.8-5.7c0.8-1.2,0.5-2.9-0.7-3.8l-2.9-1.9c-1.4-0.9-2-2.6-1.5-4.2
					c0.3-1.3,0.6-2.5,0.8-3.8c0.2-1.6,1.4-3,3-3.3l3.4-0.7c1.5-0.3,2.4-1.7,2.1-3.2l-1.3-6.7c-0.3-1.5-1.7-2.4-3.2-2.1l-3.4,0.7
					c-1.6,0.3-3.2-0.5-4-1.9c-0.6-1.1-1.4-2.2-2.2-3.3c-1-1.3-1.1-3.1-0.2-4.4l1.9-2.9c0.8-1.2,0.5-2.9-0.7-3.8l-5.7-3.8
					c-1.2-0.8-2.9-0.5-3.8,0.7l-1.9,2.9c-0.9,1.4-2.6,2-4.2,1.5c-1.3-0.3-2.5-0.6-3.8-0.8c-1.6-0.2-3-1.4-3.3-3l-0.7-3.4
					c-0.3-1.5-1.7-2.4-3.2-2.1l-6.7,1.3c-1.5,0.3-2.4,1.7-2.1,3.2l0.7,3.4c0.3,1.6-0.5,3.2-1.9,4c-1.1,0.6-2.2,1.4-3.3,2.2
					c-1.3,1-3.1,1.1-4.4,0.2l-2.9-1.9c-1.2-0.8-2.9-0.5-3.8,0.7l-3.8,5.7c-0.8,1.2-0.5,2.9,0.7,3.8l2.9,1.9c1.4,0.9,2,2.6,1.5,4.2
					c-0.3,1.3-0.6,2.5-0.8,3.8c-0.2,1.6-1.4,3-3,3.3l-3.4,0.7c-1.5,0.3-2.4,1.7-2.1,3.2l1.3,6.7c0.3,1.5,1.7,2.4,3.2,2.1l3.4-0.7
					c1.6-0.3,3.2,0.5,4,1.9c0.6,1.1,1.4,2.2,2.2,3.3c1,1.3,1.1,3.1,0.2,4.4l-1.9,2.9c-0.8,1.2-0.5,2.9,0.7,3.8l5.7,3.8
					c1.2,0.8,2.9,0.5,3.8-0.7l1.9-2.9c0.9-1.4,2.6-2,4.2-1.5c1.3,0.3,2.5,0.6,3.8,0.8c1.6,0.2,3,1.4,3.3,3l0.7,3.4
					c0.3,1.5,1.7,2.4,3.2,2.1l6.7-1.3c1.5-0.3,2.4-1.7,2.1-3.2l-0.7-3.4c-0.3-1.6,0.5-3.2,1.9-4c1.1-0.6,2.2-1.4,3.3-2.2
					c1.3-1,3.1-1.1,4.4-0.2l2.9,1.9C1775.2,537.3,1776.9,537,1777.7,535.7z M1741.7,524.7c-6.6-4.4-8.4-13.4-3.9-20
					c4.4-6.6,13.4-8.4,20-3.9c6.6,4.4,8.4,13.4,3.9,20C1757.2,527.4,1748.3,529.1,1741.7,524.7z"/>
			</g>
		</g>
		<g>
			<path fill="#009EE1" d="M1841.3,484.6l3.8-5.7c0.8-1.2,0.5-2.9-0.7-3.8l-2.9-1.9c-1.4-0.9-2-2.6-1.5-4.2c0.3-1.3,0.6-2.5,0.8-3.8
				c0.2-1.6,1.4-3,3-3.3l3.4-0.7c1.5-0.3,2.4-1.7,2.1-3.2l-1.3-6.7c-0.3-1.5-1.7-2.4-3.2-2.1l-3.4,0.7c-1.6,0.3-3.2-0.5-4-1.9
				c-0.6-1.1-1.4-2.2-2.2-3.3c-1-1.3-1.1-3.1-0.2-4.4l1.9-2.9c0.8-1.2,0.5-2.9-0.7-3.8l-5.7-3.8c-1.2-0.8-2.9-0.5-3.8,0.7l-1.9,2.9
				c-0.9,1.4-2.6,2-4.2,1.5c-1.3-0.3-2.5-0.6-3.8-0.8c-1.6-0.2-3-1.4-3.3-3l-0.7-3.4c-0.3-1.5-1.7-2.4-3.2-2.1l-6.7,1.3
				c-1.5,0.3-2.4,1.7-2.1,3.2l0.7,3.4c0.3,1.6-0.5,3.2-1.9,4c-1.1,0.6-2.2,1.4-3.3,2.2c-1.3,1-3.1,1.1-4.4,0.2l-2.9-1.9
				c-1.2-0.8-2.9-0.5-3.8,0.7l-3.8,5.7c-0.8,1.2-0.5,2.9,0.7,3.8l2.9,1.9c1.4,0.9,2,2.6,1.5,4.2c-0.3,1.3-0.6,2.5-0.8,3.8
				c-0.2,1.6-1.4,3-3,3.3l-3.4,0.7c-1.5,0.3-2.4,1.7-2.1,3.2l1.3,6.7c0.3,1.5,1.7,2.4,3.2,2.1l3.4-0.7c1.6-0.3,3.2,0.5,4,1.9
				c0.6,1.1,1.4,2.2,2.2,3.3c1,1.3,1.1,3.1,0.2,4.4l-1.9,2.9c-0.8,1.2-0.5,2.9,0.7,3.8l5.7,3.8c1.2,0.8,2.9,0.5,3.8-0.7l1.9-2.9
				c0.9-1.4,2.6-2,4.2-1.5c1.3,0.3,2.5,0.6,3.8,0.8c1.6,0.2,3,1.4,3.3,3l0.7,3.4c0.3,1.5,1.7,2.4,3.2,2.1l6.7-1.3
				c1.5-0.3,2.4-1.7,2.1-3.2l-0.7-3.4c-0.3-1.6,0.5-3.2,1.9-4c1.1-0.6,2.2-1.4,3.3-2.2c1.3-1,3.1-1.1,4.4-0.2l2.9,1.9
				C1838.8,486.1,1840.5,485.8,1841.3,484.6z M1809.3,467.6c-3.3-2.2-4.2-6.7-2-10.1c2.2-3.3,6.7-4.2,10.1-2c3.3,2.2,4.2,6.7,2,10.1
				C1817.1,469,1812.6,469.9,1809.3,467.6z"/>
		</g>
	</g>
	<g clip-path="url(#XMLID_4_)">
		<path fill="#3F87CA" d="M1171.2,739.8c0,0-69-90-215-80.8C956.2,659,1033.6,751.5,1171.2,739.8z"/>
		<path fill="#3F87CA" d="M1129,678.5c0,0,14.9-112.4-94.8-209.2C1034.3,469.4,1023.5,589.5,1129,678.5z"/>
		<path fill="#3F87CA" d="M1118.4,693.1c0,0,97.2-52.6,110.7-194.4C1229,498.6,1128.2,558.9,1118.4,693.1z"/>
		<g>
			<g>
				<path fill="#4D99E0" d="M1140.4,685.1c0,0-81-49.7-51.4-74.9c22.1-18.9-21.5-43.1-4.9-52.4c16.6-9.4,20-0.8,14.2-24.9
					c-5.8-24.1,13.6-30.7,20.7-55.2c7-24.6,41.7-15.5,39.2,20.1c-2.5,35.7,7.9-2.1,19.4,12.9c11.5,15-26.6,72.8-12.1,67.9
					c14.5-4.9,25.7,6.1,20.6,23.5C1174.3,642.8,1140.4,685.1,1140.4,685.1z"/>
				<path fill="#3F87CA" d="M1143.2,703c-0.1-0.1-0.2-0.2-0.3-0.4c-5.4-27.5-12-63.8-14.7-100.7l0-0.3l-0.2-0.2
					c-8.4-7.2-15.7-15.6-22.7-23.8c-2.3-2.7-4.7-5.4-7-8.1c-0.1-0.2-0.1-0.3,0-0.4c0.2-0.2,0.5-0.3,0.7-0.2c0.1,0,0.1,0.1,0.2,0.1
					c2.3,2.6,4.6,5.2,6.9,7.9c6.5,7.6,13.3,15.4,20.9,22.2l1.3,1.1l-0.1-1.7c-1-15.5-1.4-31.4-1.1-48.5l0-0.5c0,0-0.4-0.2-0.4-0.2
					c-0.1,0-0.1-0.1-0.2-0.1c-6.5-9.8-12.1-20.3-16.6-31.1c-0.1-0.2-0.1-0.3,0.1-0.5c0.2-0.2,0.5-0.2,0.6-0.1c0.1,0,0.2,0.1,0.2,0.2
					c4.1,9.9,9.2,19.6,15.1,28.7l1.2,1.9l0.1-2.3c0.4-16.2,1.3-32.9,2.9-51c0-0.2,0.1-0.3,0.1-0.3c0.1-0.1,0.3-0.1,0.5,0
					c0.2,0.1,0.3,0.3,0.3,0.5c-2.1,24.9-3.1,47.3-3,68.7l0,1.3l1.1-0.8c12.3-8.9,22.6-19.9,30.6-32.7c0.1-0.2,0.2-0.2,0.4-0.1
					c0.2,0.1,0.3,0.2,0.4,0.4c0,0.2,0,0.3-0.1,0.4c-8.3,13.3-19.1,24.7-32,33.7l-0.4,0.2l0,0.4c0.1,12,0.5,23.1,1.3,34l0,0.2
					l0.1,0.2c0.1,0.1,0.1,0.3,0,0.4l-0.1,0.2l0,0.2c0.7,9.6,1.7,19.7,3.1,30.8l0.2,1.8l1-1.5c9.7-14.3,20.4-28.1,31.6-41.1
					c0.2-0.2,0.4-0.2,0.6-0.1c0.2,0.1,0.3,0.2,0.3,0.4c0,0.1,0,0.2-0.1,0.3c-11.8,13.7-22.9,28.3-33.1,43.3l-0.1,0.2l0,0.3
					c2.5,19.5,6.1,40.5,11.1,66.1c0,0.2,0,0.3-0.1,0.3C1143.7,703,1143.4,703,1143.2,703L1143.2,703z"/>
			</g>
		</g>
		<g>
			<g>
				<path fill="#4D99E0" d="M1151.4,688.2c0,0-93.1,35.8-95.2-4.9c-1.6-30.5-49.6-9.6-46.8-29.4c2.8-19.8,12.1-17.2-11.7-27.7
					c-23.8-10.5-16.9-30.9-32.8-52.5c-16-21.5,13.7-44.7,41.8-19.8c28.1,24.9,3.3-8,23.1-7.9c19.8,0,43.7,68.7,48.8,53.5
					c5.1-15.2,21.5-17.5,32.8-2.2C1137.7,633,1151.4,688.2,1151.4,688.2z"/>
				<path fill="#3F87CA" d="M1168.1,697.3c-0.1,0.1-0.3,0.1-0.5,0c-26.4-13-60.9-30.7-93.3-52l-0.3-0.2l-0.3,0.1
					c-11.3,2.4-23,3.1-34.4,3.8c-3.7,0.2-7.5,0.4-11.2,0.7c-0.2,0-0.3,0-0.4-0.2c-0.1-0.3,0-0.6,0.3-0.7c0.1,0,0.1-0.1,0.2-0.1
					c3.7-0.3,7.3-0.5,11-0.7c10.5-0.6,21.3-1.3,31.8-3.3l1.7-0.3l-1.5-1c-13.6-9.1-27-18.9-41.1-30.1l-0.4-0.3c0,0-0.4,0.2-0.4,0.2
					c-0.1,0-0.2,0.1-0.2,0.1c-12.3-0.8-24.6-2.8-36.5-6c-0.2-0.1-0.3-0.2-0.3-0.4c0-0.2,0.1-0.5,0.3-0.6c0.1,0,0.2-0.1,0.3,0
					c10.9,2.9,22.2,4.8,33.5,5.7l2.4,0.2l-1.8-1.5c-13.2-10.6-26.5-22.1-40.7-35c-0.2-0.2-0.2-0.3-0.1-0.3c0-0.2,0.2-0.3,0.4-0.4
					c0.2-0.1,0.4-0.1,0.6,0.1c19.4,17.6,37.5,32.8,55.3,46.4l1.1,0.9l0-1.4c0.5-15.9-2.1-31.5-7.7-46.4c-0.1-0.2-0.1-0.3,0.1-0.4
					c0.2-0.1,0.4-0.1,0.6,0c0.2,0.1,0.3,0.2,0.3,0.3c5.8,15.4,8.4,31.7,7.7,48.2l0,0.4l0.3,0.2c10.1,7.6,19.6,14.3,29.1,20.6
					l0.2,0.1l0.2,0c0.2,0,0.3,0.1,0.4,0.3l0.1,0.2l0.2,0.1c8.4,5.5,17.5,11.1,27.6,17.1l1.7,1l-0.6-1.8
					c-5.7-17.2-10.5-34.9-14.1-52.6c-0.1-0.3,0-0.4,0.3-0.6c0.2-0.1,0.4-0.1,0.5,0c0.1,0,0.2,0.1,0.2,0.3c3.9,18.6,8.9,37.2,15,55.2
					l0.1,0.3l0.2,0.1c17.8,10.3,37.6,20.8,62.2,32.9c0.2,0.1,0.2,0.2,0.2,0.3C1168.4,696.9,1168.3,697.2,1168.1,697.3L1168.1,697.3z
					"/>
			</g>
		</g>
	</g>
	<g clip-path="url(#XMLID_4_)">
		<path fill="#FFFFFF" d="M1826.8,588.9h-729c-6.9,0-12.4,5.6-12.4,12.4l-1.5,355.5c0,6.9,5.6,12.4,12.4,12.4l730.5-6
			c6.9,0,12.4-5.6,12.4-12.4V601.4C1839.2,594.5,1833.6,588.9,1826.8,588.9z"/>
		<g>
			<path fill="#CAECFF" d="M1750,689.4h-588.1c-2.4,0-4.4,1.9-4.4,4.4v65.8c0,2.4,1.9,4.4,4.4,4.4H1750c2.4,0,4.4-1.9,4.4-4.4v-65.8
				C1754.4,691.3,1752.4,689.4,1750,689.4z"/>
			<path fill="#B03655" d="M1298.6,689.4h-130.7c-5.7,0-10.4,4.6-10.4,10.4v53.7c0,5.7,4.6,10.4,10.4,10.4h130.7
				c5.8,0,10.5-4.7,10.5-10.5v-53.4C1309.2,694.1,1304.4,689.4,1298.6,689.4z"/>
		</g>
		<path fill="#98DDFD" d="M1257.6,802.6h-87.9c-2.8,0-5.1,2.3-5.1,5.1v87.9c0,2.8,2.3,5.1,5.1,5.1h87.9c2.8,0,5.1-2.3,5.1-5.1v-87.9
			C1262.7,804.9,1260.4,802.6,1257.6,802.6z"/>
		<path fill="#60CDEB" d="M1452.2,802.6h-87.9c-2.8,0-5.1,2.3-5.1,5.1v87.9c0,2.8,2.3,5.1,5.1,5.1h87.9c2.8,0,5.1-2.3,5.1-5.1v-87.9
			C1457.3,804.9,1455.1,802.6,1452.2,802.6z"/>
		<g>
			<path fill="#98DDFD" d="M1275.4,813.2c-0.8,0-1.5-0.7-1.5-1.5c0-0.8,0.7-1.5,1.5-1.5h65.1c0.8,0,1.5,0.7,1.5,1.5
				c0,0.8-0.7,1.5-1.5,1.5H1275.4z"/>
			<path fill="#98DDFD" d="M1275.4,829c-0.8,0-1.5-0.7-1.5-1.5c0-0.8,0.7-1.5,1.5-1.5h65.1c0.8,0,1.5,0.7,1.5,1.5
				c0,0.8-0.7,1.5-1.5,1.5H1275.4z"/>
			<path fill="#98DDFD" d="M1275.4,844.8c-0.8,0-1.5-0.7-1.5-1.5c0-0.8,0.7-1.5,1.5-1.5h65.1c0.8,0,1.5,0.7,1.5,1.5
				c0,0.8-0.7,1.5-1.5,1.5H1275.4z"/>
			<path fill="#98DDFD" d="M1275.4,860.7c-0.8,0-1.5-0.7-1.5-1.5c0-0.8,0.7-1.5,1.5-1.5h65.1c0.8,0,1.5,0.7,1.5,1.5
				c0,0.8-0.7,1.5-1.5,1.5H1275.4z"/>
			<path fill="#98DDFD" d="M1275.4,876.5c-0.8,0-1.5-0.7-1.5-1.5c0-0.8,0.7-1.5,1.5-1.5h65.1c0.8,0,1.5,0.7,1.5,1.5
				c0,0.8-0.7,1.5-1.5,1.5H1275.4z"/>
			<path fill="#98DDFD" d="M1275.4,892.3c-0.8,0-1.5-0.7-1.5-1.5c0-0.8,0.7-1.5,1.5-1.5h27.8c0.8,0,1.5,0.7,1.5,1.5
				c0,0.8-0.7,1.5-1.5,1.5H1275.4z"/>
		</g>
		<g>
			<path fill="#98DDFD" d="M1473.9,813.2c-0.8,0-1.5-0.7-1.5-1.5c0-0.8,0.7-1.5,1.5-1.5h65.1c0.8,0,1.5,0.7,1.5,1.5
				c0,0.8-0.7,1.5-1.5,1.5H1473.9z"/>
			<path fill="#98DDFD" d="M1473.9,829c-0.8,0-1.5-0.7-1.5-1.5c0-0.8,0.7-1.5,1.5-1.5h65.1c0.8,0,1.5,0.7,1.5,1.5
				c0,0.8-0.7,1.5-1.5,1.5H1473.9z"/>
			<path fill="#98DDFD" d="M1473.9,844.8c-0.8,0-1.5-0.7-1.5-1.5c0-0.8,0.7-1.5,1.5-1.5h65.1c0.8,0,1.5,0.7,1.5,1.5
				c0,0.8-0.7,1.5-1.5,1.5H1473.9z"/>
			<path fill="#98DDFD" d="M1473.9,860.7c-0.8,0-1.5-0.7-1.5-1.5c0-0.8,0.7-1.5,1.5-1.5h65.1c0.8,0,1.5,0.7,1.5,1.5
				c0,0.8-0.7,1.5-1.5,1.5H1473.9z"/>
			<path fill="#98DDFD" d="M1473.9,876.5c-0.8,0-1.5-0.7-1.5-1.5c0-0.8,0.7-1.5,1.5-1.5h65.1c0.8,0,1.5,0.7,1.5,1.5
				c0,0.8-0.7,1.5-1.5,1.5H1473.9z"/>
			<path fill="#98DDFD" d="M1473.9,892.3c-0.8,0-1.5-0.7-1.5-1.5c0-0.8,0.7-1.5,1.5-1.5h27.8c0.8,0,1.5,0.7,1.5,1.5
				c0,0.8-0.7,1.5-1.5,1.5H1473.9z"/>
		</g>
		<path fill="#009EE1" d="M1652.4,802.6h-87.9c-2.8,0-5.1,2.3-5.1,5.1v87.9c0,2.8,2.3,5.1,5.1,5.1h87.9c2.8,0,5.1-2.3,5.1-5.1v-87.9
			C1657.5,804.9,1655.2,802.6,1652.4,802.6z"/>
		<g>
			<path fill="#98DDFD" d="M1674,813.2c-0.8,0-1.5-0.7-1.5-1.5c0-0.8,0.7-1.5,1.5-1.5h65.1c0.8,0,1.5,0.7,1.5,1.5
				c0,0.8-0.7,1.5-1.5,1.5H1674z"/>
			<path fill="#98DDFD" d="M1674,829c-0.8,0-1.5-0.7-1.5-1.5c0-0.8,0.7-1.5,1.5-1.5h65.1c0.8,0,1.5,0.7,1.5,1.5
				c0,0.8-0.7,1.5-1.5,1.5H1674z"/>
			<path fill="#98DDFD" d="M1674,844.8c-0.8,0-1.5-0.7-1.5-1.5c0-0.8,0.7-1.5,1.5-1.5h65.1c0.8,0,1.5,0.7,1.5,1.5
				c0,0.8-0.7,1.5-1.5,1.5H1674z"/>
			<path fill="#98DDFD" d="M1674,860.7c-0.8,0-1.5-0.7-1.5-1.5c0-0.8,0.7-1.5,1.5-1.5h65.1c0.8,0,1.5,0.7,1.5,1.5
				c0,0.8-0.7,1.5-1.5,1.5H1674z"/>
			<path fill="#98DDFD" d="M1674,876.5c-0.8,0-1.5-0.7-1.5-1.5c0-0.8,0.7-1.5,1.5-1.5h65.1c0.8,0,1.5,0.7,1.5,1.5
				c0,0.8-0.7,1.5-1.5,1.5H1674z"/>
			<path fill="#98DDFD" d="M1674,892.3c-0.8,0-1.5-0.7-1.5-1.5c0-0.8,0.7-1.5,1.5-1.5h27.8c0.8,0,1.5,0.7,1.5,1.5
				c0,0.8-0.7,1.5-1.5,1.5H1674z"/>
		</g>
		<g>
			<path fill-rule="evenodd" clip-rule="evenodd" fill="#B03655" d="M1822.2,608.5h-19.2c-1,0-1.9,0.9-1.9,1.9l0,0
				c0,1,0.9,1.9,1.9,1.9h19.2c1,0,1.9-0.9,1.9-1.9l0,0C1824.1,609.4,1823.3,608.5,1822.2,608.5z"/>
			<path fill-rule="evenodd" clip-rule="evenodd" fill="#B03655" d="M1822.2,617.6h-19.2c-1,0-1.9,0.9-1.9,1.9l0,0
				c0,1,0.9,1.9,1.9,1.9h19.2c1,0,1.9-0.9,1.9-1.9l0,0C1824.1,618.4,1823.3,617.6,1822.2,617.6z"/>
			<path fill-rule="evenodd" clip-rule="evenodd" fill="#B03655" d="M1822.2,626.5h-19.2c-1,0-1.9,0.9-1.9,1.9l0,0
				c0,1,0.9,1.9,1.9,1.9h19.2c1,0,1.9-0.9,1.9-1.9l0,0C1824.1,627.3,1823.3,626.5,1822.2,626.5z"/>
		</g>
		<g>
			<path fill="#B03655" d="M1130.8,618.3c0,4.7-3.8,8.4-8.4,8.4c-4.7,0-8.4-3.8-8.4-8.4s3.8-8.4,8.4-8.4
				C1127,609.9,1130.8,613.7,1130.8,618.3z"/>
			<path fill="#60CDEB" d="M1176.4,618.3c0,4.7-3.8,8.4-8.4,8.4c-4.7,0-8.4-3.8-8.4-8.4s3.8-8.4,8.4-8.4
				C1172.6,609.9,1176.4,613.7,1176.4,618.3z"/>
			<path fill="#009EE1" d="M1223,618.3c0,4.7-3.8,8.4-8.4,8.4c-4.7,0-8.4-3.8-8.4-8.4s3.8-8.4,8.4-8.4
				C1219.2,609.9,1223,613.7,1223,618.3z"/>
		</g>
		<path fill="#FFFFFF" d="M1433.6,861.4l-21.6-30.7c-2.3-3.3-7.3-3.3-9.6,0l-21.6,30.7c-2.7,3.9,0,9.3,4.8,9.3h43.1
			C1433.6,870.7,1436.4,865.3,1433.6,861.4z"/>
		<circle fill="#FFFFFF" cx="1607.9" cy="855.3" r="25.3"/>
	</g>
	<g clip-path="url(#XMLID_4_)">
		<path fill-rule="evenodd" clip-rule="evenodd" fill="#003C8C" d="M1420.8,524.3c-0.8-5.7-3.9-18.2-14.6-13.9
			c-20.9-8.1-30.2,2.1-31.7,15.7c-1.9,17-11.4,23.9-7.9,28.7c4.4,6.1,18.1,15.1,32.3,15.4c14.8,0.3,27.7-11.7,31.6-18.1
			C1433.6,546.9,1423.3,541.2,1420.8,524.3z"/>
		<g>
			<path fill-rule="evenodd" clip-rule="evenodd" fill="#009EE1" d="M1491.7,609.2c-7.5-13.6-36.9-44.5-40.2-45.6
				c-9.2-3.1-23.8-4.5-32.4-5.3c-5.6-0.9-21.4-0.8-21.4-0.8l-6.3,0.1c-8.1,0-30.6,1-46.6,6.4c-3.3,1.1-33.7,31.5-41.2,45.1
				c-1.8,3.2-1.9,7.1-0.4,10.4l32.1,64.2l16-3.4l-12.6-55.4c-0.9-4.3,0.5-8.7,3.6-11.6l20.3-24h28.8h41l20.6,24
				c3.1,2.9,4.5,7.4,3.6,11.6l-12.6,55.4l16.2,2.3l31.8-63.1C1493.6,616.3,1493.4,612.4,1491.7,609.2z"/>
			<path fill-rule="evenodd" clip-rule="evenodd" fill="#FDBC9B" d="M1349.8,680.7l6.9,6c0.9,0.8,0.5,2.4-0.7,2.5l-2.9,0.2l1.9,5.2
				c2,5.4-9.2,13.6-13.8,3l-4.7-14L1349.8,680.7z"/>
			<path fill-rule="evenodd" clip-rule="evenodd" fill="#FDBC9B" d="M1445.8,680.7l-7.2,6c-0.9,0.8-0.5,2.4,0.7,2.5l2.9,0.2
				l-1.9,5.2c-2,5.4,9.2,13.6,13.8,3l5-15L1445.8,680.7z"/>
		</g>
		<g>
			<g>
				<path fill-rule="evenodd" clip-rule="evenodd" fill="#FDBC9B" d="M1415.9,531.7l0.3,13c0.1,4.8-1.8,9.4-5.2,12.8
					c-0.6,0.5-1.1,1.1-1.7,1.6c-5.9,5.8-15.4,6-21.5,0.4l-1.7-1.6c-3.6-3.2-5.7-7.8-5.8-12.6l-0.3-13c0,0,18.3-0.2,25.2-8.8
					C1405.2,523.6,1408.7,530.3,1415.9,531.7z"/>
				<path fill-rule="evenodd" clip-rule="evenodd" fill="#FDBC9B" d="M1415.9,531.7l0.3,13c0.1,4.8-1.8,9.4-5.2,12.8
					c-0.6,0.5-1.1,1.1-1.7,1.6c-5.9,5.8-15.4,6-21.5,0.4l-1.7-1.6c-3.6-3.2-5.7-7.8-5.8-12.6l-0.3-13c0,0,18.1-0.2,25.1-8.8
					C1405,523.6,1408.7,530.3,1415.9,531.7z"/>
				<path fill-rule="evenodd" clip-rule="evenodd" fill="#FDBC9B" d="M1384.7,547.9c3.4-5.6-2.6-11.4-8.1-7.8
					c-0.4,0.3-0.8,0.7-1.1,1.1c-3.4,5.7,2.6,11.4,8.1,7.8C1384.1,548.7,1384.5,548.3,1384.7,547.9z"/>
				<path fill-rule="evenodd" clip-rule="evenodd" fill="#FDBC9B" d="M1420.5,547.1c3.3-5.5-2.3-11.1-7.7-8c-0.7,0.4-1.3,1-1.7,1.8
					c-2.9,5.5,3,10.9,8.4,7.4C1419.9,548,1420.3,547.6,1420.5,547.1z"/>
			</g>
		</g>
		<path fill-rule="evenodd" clip-rule="evenodd" fill="#FDBC9B" d="M1408.5,560.4c0-5.7-4.6-10.3-10.2-10.3
			c-5.6,0-10.2,4.6-10.2,10.3s4.6,11.5,10.2,11.5C1403.9,571.9,1408.5,566.1,1408.5,560.4z"/>
		<path fill-rule="evenodd" clip-rule="evenodd" fill="#F09F7F" d="M1388.2,559.9c0,0.2,0,0.3,0,0.5c0,0.4,5.3,5.7,10.5,5.7
			c5,0,9.9-5.3,9.9-5.7c0-0.2,0-0.4-0.1-0.6C1402.6,564.8,1394.1,564.9,1388.2,559.9z"/>
		<path fill="#00B2E8" d="M1351.4,680.4l-12.6-55.4c-0.9-4.3,0.5-8.7,3.6-11.6l20.3-24c0,0,4.5-7.7,2.3-6.7
			c-2.3,1-32.3,26.9-35,33.2c-2.1,4.8,9.8,46.4,15.5,65.8L1351.4,680.4z"/>
		<path fill="#00B2E8" d="M1451.5,563.6c-0.5-0.2-1.1-0.4-1.7-0.5c5.8,6.8,41.1,48.9,37.2,57.6c-3.5,7.9-25.6,47.8-32.3,61.3
			l5.6,0.8l31.8-63.1c1.5-3.3,1.4-7.2-0.4-10.4C1484.2,595.6,1454.8,564.7,1451.5,563.6z"/>
	</g>
	<g clip-path="url(#XMLID_4_)">
		<g>
			<path fill="#003C8C" d="M1157.4,875.4l1.8,5.1l27-2.8c0,0,29.8,38,42.1,50.9c1.3,1.3,2.7,3,4.2,4.8c7.9-19.1,23.8-79.1,7.6-83.9
				C1216.3,842.5,1157.4,875.4,1157.4,875.4z"/>
			<path fill="#003C8C" d="M1211.6,909.3c6.4,7.7,12.6,15,16.8,19.4c1.3,1.3,2.7,3,4.2,4.8c4.9-11.9,12.9-39.6,14.4-60
				C1241.6,874.2,1223.4,895.1,1211.6,909.3z"/>
		</g>
		<g>
			<path fill="#004EA9" d="M1186.3,877.8c0,0,29.8,37.9,42.1,50.9c12.4,12.9,40.6,51.2-35.3,48.3c-75.9-2.9-110.4-14.6-110.4-14.6
				l-1.6-16.5l79.5-8.4c0,0-49.6-5.8-43.6-52.6L1186.3,877.8z"/>
			<path fill="#004EA9" d="M1187.7,883.7l1.4-2.3c7.7,9.7,29.3,36.8,39.4,47.4c4.9,5.1,12.2,14.1,14.6,23
				c-5.8-13.5-23.7-26.1-38.9-41C1184.5,891.5,1187.7,883.7,1187.7,883.7z"/>
			<path fill="#0A2B94" d="M1067.4,949.3c0,0-0.2,0-0.7,0c-2.7,0.2-10.2,0.6-11.7,4c-1.8,3.9-2.4,23.4,10.4,24
				c12.8,0.6-2.4-9.6,2-13.8L1067.4,949.3z"/>
			<path fill="#003C8C" d="M1081.1,945.9l79.5-8.4c0,0,8.6,3.7,35.3,14.3c16.2,6.4,33.1,13,42.4,17.3c-6.8,5.5-20.4,8.9-45.2,7.9
				c-75.9-2.9-110.4-14.6-110.4-14.6L1081.1,945.9z"/>
			<path fill="#003C8C" d="M1082.7,962.3c0,0-9.6-4-14.7,1.4c-7.4,7.8-0.6-14.4-0.6-14.4l13.7-3.4L1082.7,962.3z"/>
		</g>
		<g>
			<path fill="#FFFFFF" d="M1262.1,751.6l-23.1-19c-0.8-0.7-1-1.8-0.6-2.7c4.1-8.3,1.8-18.7-6.4-24.3c-7.4-5.1-17.7-4.3-24.2,1.9
				c-1.3,1.2-2.4,2.6-3.2,4c-4.8,8-3.2,18.6,4.2,24.7c7,5.8,16.8,5.8,23.8,0.7c0.2-0.2,0.5-0.3,0.7-0.4c0.7-0.2,1.4,0,2,0.4l23.1,19
				c0.6,0.5,1.4,0.7,2.1,0.6c0.7-0.1,1.4-0.4,1.9-1C1263.4,754.4,1263.3,752.6,1262.1,751.6z M1231.9,730.4c-5,6-13.9,6.8-19.9,1.8
				s-6.8-13.9-1.8-19.9s13.9-6.8,19.9-1.8C1236.1,715.6,1236.9,724.5,1231.9,730.4z"/>
			<path fill="#B03655" d="M1230.1,710.6c-6-5-14.9-4.2-19.9,1.8s-4.2,14.9,1.8,19.9s14.9,4.2,19.9-1.8
				C1236.9,724.5,1236.1,715.6,1230.1,710.6z"/>
		</g>
		<path fill="#FDBC9B" d="M1249.7,740.2c-2.1-0.3-4.3,1.3-6.3,3.3c-0.6-1.9-1.6-4.8-2.7-5.3c-1.6-0.7-3.5,12.7-3.5,12.7l1.1-1
			c-0.2,0.3-0.3,0.5-0.3,0.5l11.2,5.8C1256.5,746.4,1254.8,740.9,1249.7,740.2z"/>
		<path fill="#98DDFD" d="M1117.1,841.9c2.2-23.1,5.6-47.9,9.9-54.5c2.2-3.4,4.1-5.7,6.5-7.2c0,0,0,0,0,0s-20.9,13.3-29.6,33.9
			C1099.7,824,1107.7,834.1,1117.1,841.9z"/>
		<g>
			<path fill="#FDBC9B" d="M1174.1,779.2l-0.7-9.1c2.9-0.5,5.6-1.8,7.7-4c5.7-5.9,5.6-17,0.5-23.3c-4.7,1.4-10.7,0.4-10.9,3
				c-0.4,4.1-0.7,7.4-0.7,7.4c-3.9-2.5-8-2.1-7.5,3.1c0.2,2.1,1.7,5.4,3.2,5.7c0,0,1.2,8.9-7.6,12.3c0,0,0,0,0,0l0,3.2L1174.1,779.2
				z"/>
			<path fill="#003C8C" d="M1142.8,748.5c3.8-15.8,10-24.7,26.9-25.1c15.4-0.4,17.4,12.4,17.4,12.4c-0.5,11.1-16.2,5.8-16.6,10
				c-0.3,4.1-0.7,7.4-0.7,7.4c-3.9-2.5-8-2.1-7.5,3.1c0.2,2.1,1.7,5.4,3.2,5.7c0,0,1.2,8.9-7.6,12.3
				C1158.1,774.4,1139,764.3,1142.8,748.5z"/>
			<path fill="#003C8C" d="M1142.8,748.5c3.8-15.8,10-24.7,26.9-25.1c10.2-0.3,14.5,5.3,16.3,9.1c-7.5-7.1-23.9-11.4-34.2,5.1
				c-8.9,14.3-3.3,31.5,13.2,29.6c-0.9,2.6-2.8,5.5-7,7.2C1158.1,774.4,1139,764.3,1142.8,748.5z"/>
			<path fill="#F09F7F" d="M1169.8,773c-1.4-0.9-3.1-5.5-3.1-5.5c1.7,2,6.6,2.6,6.6,2.6l0.7,9.1l-3.6-0.4
				C1170.6,776,1170.5,773.4,1169.8,773z"/>
		</g>
		<path fill="#009EE1" d="M1113.6,886.9c0,0,4.7-86.2,13.3-99.5c3.6-5.6,6.6-8.3,12.1-9.4c3.4-0.7,15.6-1.1,19.1-0.8
			c7.5,0.7,26.3,3.2,30.8,5c6.3,2.6,31.2,24.3,31.2,24.3l16.8-57.3l13.8,5.1c0,0-13.5,83.5-24.3,83.7c-10.8,0.2-38.4-15.2-38.4-15.2
			s-2.1,52.5,8.1,62.1C1196.2,885,1153,904.9,1113.6,886.9z"/>
		<path fill="#00B2E8" d="M1127,784.9c3.8-3.1,6.4-4.8,6.4-4.8s0,0,0,0c-2.4,1.6-4.4,3.9-6.5,7.2c-4.3,6.6-7.6,31.4-9.9,54.5
			c-2.3-1.9-4.5-3.9-6.5-6.1C1111.6,822,1115.1,797.7,1127,784.9z"/>
		<path fill="#00B2E8" d="M1172.6,816.4c-1.5-2.9,15.5,6.4,15.5,6.4s-2.1,52.5,8.1,62.1c0,0-3,1.4-8.1,3.1
			c-5.9-17.6-4.5-41.3-5.6-49.5C1180.9,827.3,1174.1,819.4,1172.6,816.4z"/>
	</g>
	<g clip-path="url(#XMLID_4_)">
		<g>
			<path fill="#FDBC9B" d="M1746.1,966.9c0,0.8-0.1,1.7-0.2,2.7c-0.3,3-3.4,4.6-4.2,5c0.4,0,0.8,0.1,1.1,0.2
				c5.1,2.2,8.1,2.8,13.1,0.7c0.4-0.2,0.8-0.2,1.1-0.1c-0.2-2.5-0.7-6-1.1-8.5H1746.1z"/>
			<path fill="#003C8C" d="M1758.2,983.2c0.1-2.1,0.1-4.5,0-6.3c0-1.1-1.2-1.9-2.2-1.4c-5,2.1-7.9,1.6-13.1-0.7
				c-3.9-1.7-16.7,5.4-19.9,7.5c0,0,0,0-0.1,0c-1.6,1.1-0.8,3.6,1.2,3.6h31.2C1756.8,986,1758.1,984.8,1758.2,983.2z"/>
		</g>
		<g>
			<path fill="#FDBC9B" d="M1797.7,965c0,0.8-0.1,1.7-0.2,2.7c-0.3,3-3.4,4.6-4.2,5c0.4,0,0.8,0.1,1.1,0.2c5.1,2.2,8.1,2.8,13.1,0.7
				c0.4-0.2,0.8-0.2,1.1-0.1c-0.2-2.5-0.7-6-1.1-8.5H1797.7z"/>
			<path fill="#003C8C" d="M1809.8,981.3c0.1-2.1,0.1-4.5,0-6.3c0-1.1-1.2-1.9-2.2-1.4c-5,2.1-7.9,1.6-13.1-0.7
				c-3.9-1.7-16.7,5.4-19.9,7.5c0,0,0,0-0.1,0c-1.6,1.1-0.8,3.6,1.2,3.6h31.2C1808.4,984.1,1809.7,982.8,1809.8,981.3z"/>
		</g>
		<path fill="#003C8C" d="M1800.1,785.4c0,4.4,3.1,16.2,3.1,29.5c0,25.5-13,59.6-13,59.6l21.6,91.9l-18.3,0.6l-40.5-89.9l2.9-96.2
			L1800.1,785.4z"/>
		<path fill="#004EA9" d="M1785.6,780.2c0,0-2.9,29.9-9,52c-5.1,18.4-42,46.4-42,46.4l24,89.5h-15l-53.5-86.9
			c-1.3-3.7-1.1-7.8,0.6-11.4l51.1-97.5L1785.6,780.2z"/>
		<path fill="#FDBC9B" d="M1659.3,764.1l-19.2,0c0,0,1,11.5,20.9,11.5L1659.3,764.1z"/>
		<g>
			<path fill="#FDBC9B" d="M1762.5,666.7c0.1-1,0.5-3.6,0.3-5c-0.6-5.9-4.1-7-8.2-3.3c0,0-3.7-2.3-5.8-6.9
				c-1.2-2.7-6.3-0.6-10.3-1.4c-3.5,8.4-0.3,19.9,7,25.3c3,2.2,5.7,2.5,9.2,2.4l1,14.8l18-4.8l-0.3-8.7
				C1766.5,679.2,1761.5,673.3,1762.5,666.7z"/>
		</g>
		<path fill="#003C8C" d="M1748.6,968.1c-3.8-6.4-50.8-86.5-43.8-96.3c7.2-10.2,39.4-73.4,39.4-73.4l-7.6-9.8c0,0-2.3,1.9-6,4.9
			l-39.9,76.1c-1.7,3.6-1.9,7.7-0.6,11.4l53.5,86.9H1748.6z"/>
		<path fill="#009EE1" d="M1742.3,708.3c1-18.3,29.4-19.7,32.5-19.8c4.1-0.1,7.9,2.1,10.5,5c4.6,5.1,13.2,16.2,10.5,31.8
			c-7.1,40.1,7.6,65.7,9.5,78.3c-26.5,10.7-82.5-2.6-82.5-2.6l17.1-65.2L1742.3,708.3z"/>
		<path fill="#98DDFD" d="M1721.1,752c0,0,17.4-63.2,39.6-59.6c24.6,4-15.9,82.5-15.9,82.5l-84,1.7l-1.7-13.4L1721.1,752z"/>
		<path fill="#00B2E8" d="M1757.5,772.8c-4.1,12.4-17.8,11.4-17.8,11.4l-7.6,18.7c-5.7-1.1-9.3-1.9-9.3-1.9l6.8-25.8l15.3-0.3
			c0,0,28.2-54.6,23.2-75C1768.9,701.6,1775.6,718,1757.5,772.8z"/>
		<path fill="#003C8C" d="M1781.2,730.7c-28.4-1.5-18.8-56.8-18.5-67.5c0.2-5.9-4-8.6-8.1-4.9c0,0-3.7-2.3-5.8-6.9
			c-1.2-2.7-7.6-0.7-11.5-1.4c8.1-32.7,46.5-31.2,63.4,13.1C1815.4,701.2,1826.6,733,1781.2,730.7z"/>
		<path fill="#F09F7F" d="M1757.2,680.7c0.7-0.7,3.7-6.7,3.7-6.7c-1.5,1.5-4.3,2.8-5.5,3.4c-0.4,0.2-0.6,0.3-0.6,0.3l1,14.8l2-0.5
			C1757.3,687.5,1756.7,681.2,1757.2,680.7z"/>
		<path fill="#00B2E8" d="M1736.9,723.9c3.7-17.4,15.2-28.5,18-30.9c-19.4,6.5-33.9,59-33.9,59l-61.9,11.2l69.3-4.1
			C1728.5,759.1,1732.7,743.8,1736.9,723.9z"/>
		<path fill="#003C8C" d="M1768.3,635.7c20.6,9.3,32.5,42.8,26.8,94.4c28.7-4.8,18.5-33.4,5.6-67c-17-44.3-55.3-45.8-63.4-13.1
			C1737.3,650,1747.5,626.4,1768.3,635.7z"/>
	</g>
	<g clip-path="url(#XMLID_4_)">
		<g>
			<g>
				<path fill="#3F87CA" d="M1934.9,795.4c-1.3,7.3-25.3,49.5-40.1,77.8c-11.6,22.1-9.1,43.1-7.5,51.2h2.8
					c-1.7-9.8-2.4-8.3,0.1-23.5c2.7-16.7,28.8-28.3,45.2-60.5C1951.9,808.1,1936.3,788.1,1934.9,795.4z"/>
				<path fill="#3F87CA" d="M1879.9,907c0.8,8,1.5,13.5,1.8,17.3h1.4c0.5-13.6,1.3-37,0.8-52.7c-0.8-23.1,5.5-32.6,9.1-71.5
					c3.6-38.9-6.5-94-6.5-94s-24.2,49.4-15.8,104.5C1879.2,865.5,1876.2,871.7,1879.9,907z"/>
				<path fill="#3F87CA" d="M1873,899.2c0.2,8.7,1.7,19.4,2.5,25.1h1.5c-0.3-4-0.6-11.4-0.9-24.6c-0.9-39.9-5-39.4-11.9-66.1
					c-6.9-26.7-18-37.7-29.5-51.2c0,0-11.9,19.2,4.9,47.6c16.8,28.5,23.4,30.4,27.4,44.5C1871.1,888.6,1872.8,886.7,1873,899.2z"/>
				<path fill="#3F87CA" d="M1869.1,924.3h1.7c0.8-5.4,0.9-13.6-3.6-21.2c-7.7-13-13.6-30.1-25.4-41.4c-16.1-15.4-27.3-54-27.3-54
					s-8.5,34.3,7.9,61.4c16.4,27.2,30.1,32.3,37.5,36.7C1867.6,910.6,1869.2,918.6,1869.1,924.3z"/>
			</g>
			<path fill="#4D99E0" d="M1881.8,924.3h0.3l1.3-5.3c0.5-13.8,1.1-33.6,0.6-47.4c-0.8-23.1,5.5-32.6,9.1-71.5
				c3.6-38.9-6.5-94-6.5-94s-9.2,76.8-6.7,112C1882.2,850.6,1881.8,914.9,1881.8,924.3z"/>
			<path fill="#4D99E0" d="M1935.8,793.9c0.2,10.4-0.6,45.6-21.3,64.3c-24,21.7-31.7,45.7-24.5,66.1h0.2c-1.7-9.8-2.4-8.3,0.1-23.5
				c2.7-16.7,28.8-28.3,45.2-60.5C1950.1,811.7,1939.3,792.7,1935.8,793.9z"/>
			<path fill="#4D99E0" d="M1876.3,924.3h0.8c-0.3-4-0.6-11.4-0.9-24.6c-0.9-39.9-5-39.4-11.9-66.1c-6.9-26.7-18-37.7-29.5-51.2
				c0,0-0.5,26.5,16.7,52c17.2,25.5,22,44.3,22.4,51.3C1874.3,891.6,1875.8,916,1876.3,924.3z"/>
			<path fill="#4D99E0" d="M1869.5,924.3h1.3c0.8-5.4,0.9-13.6-3.6-21.2c-7.7-13-13.6-30.1-25.4-41.4c-16.1-15.4-27.3-54-27.3-54
				s0.5,43.7,13.2,56.4c12.7,12.7,12.4,9.1,22.3,21.6c9.9,12.6,12.9,16.1,16.7,23.8C1869.1,914.5,1869.5,920.6,1869.5,924.3z"/>
		</g>
		<path fill="#98DDFD" d="M1900.8,917.3h-44.6c-4.5,0-8,4.1-7.1,8.6l8.7,45.7c0.7,3.4,3.6,5.9,7.1,5.9h27.1c3.5,0,6.5-2.5,7.1-5.9
			l8.7-45.7C1908.8,921.4,1905.4,917.3,1900.8,917.3z"/>
		<path opacity="0.56" fill="#3F87CA" d="M1907.8,922.8L1907.8,922.8C1907.8,922.8,1907.8,922.8,1907.8,922.8c0-0.2-0.1-0.3-0.1-0.5
			c-0.1-0.3-0.2-0.6-0.4-0.9c-0.1-0.2-0.2-0.3-0.3-0.5c-0.2-0.3-0.3-0.5-0.5-0.8c-0.1-0.1-0.2-0.3-0.3-0.4c-0.3-0.3-0.6-0.7-1-0.9
			c-0.1-0.1-0.1-0.1-0.2-0.1c-0.3-0.2-0.6-0.4-1-0.6c-0.1-0.1-0.3-0.1-0.4-0.2c-0.3-0.1-0.6-0.3-1-0.3c-0.1,0-0.3-0.1-0.4-0.1
			c-0.5-0.1-1-0.2-1.5-0.2h-9.9h-34.7c-3.5,0-6.3,2.4-7,5.5h48.8c0.2,1,0.3,2,0.1,3.1l-8.7,45.7c-0.7,3.4-3.6,5.9-7.1,5.9h9.9
			c3.5,0,6.5-2.5,7.1-5.9l8.7-45.7C1908.1,924.8,1908.1,923.8,1907.8,922.8z"/>
	</g>
	<path clip-path="url(#XMLID_4_)" fill="#98DDFD" d="M1381.3,437.6c14.9,0,15.7-22.2,0.8-23.1c-0.1,0-0.3,0-0.4,0c0-0.1,0-0.2,0-0.3
		c0-15.8-12.8-28.7-28.7-28.7c-5,0-9.7,1.3-13.8,3.5c-5-9.3-14.9-15.7-26.2-15.7c-16.4,0-29.8,13.3-29.8,29.8c0,0.9,0,1.8,0.1,2.6
		c-3-0.9-6.3-1.4-9.6-1.4c-12,0-22.6,6.1-28.8,15.3c-5.1,7.6,0.5,17.9,9.7,17.9H1381.3z"/>
	<path clip-path="url(#XMLID_4_)" fill="#98DDFD" d="M1811.9,342.6c-13.4,0-14.1-19.9-0.7-20.8c0.1,0,0.3,0,0.4,0c0-0.1,0-0.2,0-0.2
		c0-14.3,11.6-25.8,25.8-25.8c4.5,0,8.7,1.2,12.4,3.2c4.5-8.4,13.4-14.1,23.6-14.1c14.8,0,26.8,12,26.8,26.8c0,0.8,0,1.6-0.1,2.4
		c2.7-0.8,5.6-1.2,8.6-1.2c10.8,0,20.3,5.5,25.9,13.8c4.6,6.9-0.5,16.1-8.7,16.1H1811.9z"/>
	<path clip-path="url(#XMLID_4_)" fill="#98DDFD" d="M1438.7,268.1c-15.9,0-16.7-23.7-0.9-24.7c0.2,0,0.3,0,0.5,0c0-0.1,0-0.2,0-0.3
		c0-16.9,13.7-30.6,30.6-30.6c5.3,0,10.3,1.4,14.7,3.8c5.4-10,15.9-16.8,28-16.8c17.6,0,31.8,14.2,31.8,31.8c0,0.9,0,1.9-0.1,2.8
		c3.3-0.9,6.7-1.4,10.2-1.4c12.8,0,24.1,6.5,30.8,16.4c5.5,8.1-0.6,19.1-10.4,19.1H1438.7z"/>
</g>
</svg>
