<?xml version="1.0" encoding="utf-8"?>
<!-- Generator: Adobe Illustrator 23.0.1, SVG Export Plug-In . SVG Version: 6.00 Build 0)  -->
<svg version="1.1" id="Layer_1" xmlns="http://www.w3.org/2000/svg" xmlns:xlink="http://www.w3.org/1999/xlink" x="0px" y="0px"
	 viewBox="0 0 300 300" enable-background="new 0 0 300 300" xml:space="preserve">
<path fill="#219EDF" d="M149.8,168.2c48.7,0,90.4,29,107.3,69.9c22.3-24.2,35.9-55.9,35.9-90.6c0-75.8-64.1-137.2-143.2-137.2
	S6.6,71.6,6.6,147.4c0,34.8,13.6,66.4,35.8,90.6C59.4,197.1,101.1,168.2,149.8,168.2c-28.2,0-51.1-21.9-51.1-49"/>
<path fill-rule="evenodd" clip-rule="evenodd" fill="#003C8C" d="M230.1,125.9c-3-19.7-14.1-62.7-52.5-47.8
	c-75-27.8-108.5,7.3-113.8,54c-6.7,58.6-41,82.1-28.3,98.9c15.9,21,65.1,51.8,115.9,52.9c53,1,99.5-40.1,113.5-62.3
	C276,203.7,239,184.2,230.1,125.9z"/>
<g>
	<g>
		<path fill-rule="evenodd" clip-rule="evenodd" fill="#FDBC9B" d="M212.5,151.5l1,44.5c0.4,16.5-6.4,32.5-18.7,44.1
			c-2,1.8-4,3.7-6.1,5.6c-21.3,20-55.2,20.7-77.3,1.5l-6.3-5.4c-12.8-11-20.3-26.7-20.6-43.2l-1-44.7c0,0,65.5-0.6,90.5-30.4
			C174,123.6,186.6,146.7,212.5,151.5z"/>
		<path fill-rule="evenodd" clip-rule="evenodd" fill="#FDBC9B" d="M212.5,151.5l1,44.5c0.4,16.5-6.4,32.5-18.7,44.1
			c-2,1.8-4,3.7-6.1,5.6c-21.3,20-55.2,20.7-77.3,1.5l-6.3-5.4c-12.8-11-20.3-26.7-20.6-43.2l-1-44.7c0,0,64.9-0.6,89.9-30.4
			C173.4,123.7,186.6,146.7,212.5,151.5z"/>
		<path fill-rule="evenodd" clip-rule="evenodd" fill="#FDBC9B" d="M100.6,207.1c12.1-19.4-9.4-39.2-29.2-26.8
			c-1.5,1-2.9,2.3-3.8,3.8c-12.1,19.4,9.4,39.2,29.2,26.8C98.4,210,99.7,208.6,100.6,207.1z"/>
		<path fill-rule="evenodd" clip-rule="evenodd" fill="#FDBC9B" d="M229.1,204.6c11.8-19-8.4-38.3-27.8-27.7c-2.6,1.4-4.7,3.5-6,6
			c-10.3,19,10.7,37.5,30,25.5C226.8,207.4,228.2,206.1,229.1,204.6z"/>
	</g>
</g>
<path fill-rule="evenodd" clip-rule="evenodd" fill="#FDBC9B" d="M186,250.3c0-19.5-16.4-35.3-36.5-35.3
	c-20.2,0-36.5,15.8-36.5,35.3s16.4,39.4,36.5,39.4C169.6,289.7,186,269.7,186,250.3z"/>
<path fill-rule="evenodd" clip-rule="evenodd" fill="#F09F7F" d="M113.1,248.6c0,0.6-0.2,1.1-0.2,1.6c0,1.4,18.9,19.6,37.5,19.6
	c17.9,0,35.5-18.3,35.5-19.6c0-0.7-0.2-1.3-0.2-2C165,265.3,134.2,265.5,113.1,248.6z"/>
<ellipse fill="none" stroke="#04193D" stroke-width="6" stroke-miterlimit="10" cx="149.8" cy="145.4" rx="143.2" ry="137.2"/>
</svg>
